<?xml version="1.0" encoding="utf-8"?>
<!-- Generator: Adobe Illustrator 15.0.0, SVG Export Plug-In . SVG Version: 6.00 Build 0)  -->
<!DOCTYPE svg PUBLIC "-//W3C//DTD SVG 1.1//EN" "http://www.w3.org/Graphics/SVG/1.1/DTD/svg11.dtd">
<svg version="1.1" id="Mode_Isolation" xmlns="http://www.w3.org/2000/svg" xmlns:xlink="http://www.w3.org/1999/xlink" x="0px"
	 y="0px" width="1951px" height="1025px" viewBox="0 0 1951 1025" enable-background="new 0 0 1951 1025" xml:space="preserve">
<rect x="0" y="0" fill="#B3D1E0" width="1951" height="1025"/>
<g>
	<g>
		<g>
			<path opacity="0.3" fill="#396CA9" d="M1002.14,807.151L685.059,624.085c-8.972-5.181-7.842-14.229,2.511-20.206l215.908-124.613
				c10.359-5.983,26.027-6.63,34.997-1.452l317.083,183.067c8.971,5.18,7.847,14.228-2.511,20.209l-215.911,124.608
				C1026.776,811.68,1011.111,812.327,1002.14,807.151z"/>
			<path fill="#163E7B" d="M1329.823,336.581L1012.74,153.514c-3.685-2.126-7.425-2.454-10.744-1.319l0.018-0.031l-0.571,0.217
				c-0.049,0.019-0.099,0.032-0.144,0.051l-11.459,4.387l10.284,5.035c-0.048,0.189-0.104,0.366-0.146,0.559l-51.647,235.1
				c-2.584,11.765,2.59,25.5,11.563,30.679l309.451,178.668l-1.102,13.111l12.521-4.854c4.208-1.968,7.579-6.418,8.971-12.753
				l51.646-235.101C1343.966,355.496,1338.792,341.76,1329.823,336.581z"/>
			<path fill="#396CA9" d="M1329.823,336.581L1012.74,153.514c-3.685-2.126-7.425-2.454-10.744-1.319l0.018-0.031l-0.571,0.217
				c-0.049,0.019-0.099,0.032-0.144,0.051l-11.459,4.387l10.284,5.035c-0.048,0.189-0.104,0.366-0.146,0.559l-34.041,154.943
				l155.146,120.872l218.758-89.013C1337.735,343.769,1334.24,339.133,1329.823,336.581z"/>
			<path fill="#284F88" d="M1317.866,372.72l24.138-10.278c0.446-9.346-3.428-19.003-9.779-24.168l-38.208,16.072L1317.866,372.72z"
				/>
			<path fill="#D4EAF7" d="M1257.229,618.725L940.146,435.654c-8.969-5.178-14.144-18.914-11.562-30.679l51.649-235.099
				c2.584-11.764,11.95-17.104,20.92-11.925l317.083,183.066c8.967,5.18,14.146,18.917,11.56,30.682l-51.643,235.098
				C1275.564,618.562,1266.197,623.905,1257.229,618.725z"/>
			<path fill="#FFFFFF" d="M1250.354,601.235L952.146,429.149c-8.209-4.74-12.946-17.31-10.578-28.077l47.26-215.131
				c2.368-10.767,10.937-15.651,19.146-10.913l298.212,172.088c8.207,4.737,12.943,17.307,10.578,28.072L1269.5,590.323
				C1267.134,601.09,1258.563,605.978,1250.354,601.235z"/>
			<path fill="#163E7B" d="M1250.354,601.235L952.146,429.149c-8.209-4.74-12.946-17.31-10.578-28.077l47.26-215.131
				c2.368-10.767,10.937-15.651,19.146-10.913l298.212,172.088c8.207,4.737,12.943,17.307,10.578,28.072L1269.5,590.323
				C1267.134,601.09,1258.563,605.978,1250.354,601.235z"/>
			<path fill="#163E7B" d="M1261.606,626.697l-43.345-5.724L938.475,459.436c-8.969-5.181-24.637-4.528-34.997,1.452
				l-198.251,114.42l-26.209-3.464v14.875l0.025,0.006c-0.171,3.433,1.785,6.74,6.018,9.185l317.08,183.066
				c8.973,5.18,24.638,4.529,34.996-1.451l215.911-124.609c5.824-3.366,8.729-7.702,8.561-11.772l0,0L1261.606,626.697
				L1261.606,626.697z"/>
			<path fill="#396CA9" d="M1051.383,524.627l-19.878-11.476h-218.54l-107.74,62.156l-26.209-3.464v14.875l0.025,0.006
				c-0.171,3.433,1.785,6.74,6.018,9.185l317.081,183.067c4.739,2.736,11.353,3.829,18.063,3.386L1051.383,524.627z"/>
			<path fill="#5992C8" d="M690.645,573.386l-11.629-1.542v14.875l0.025,0.006c-0.171,3.433,1.785,6.74,6.018,9.185l5.586,3.228
				V573.386z"/>
			<path fill="#284F88" d="M1005.335,780.462c8.501,3.218,20.657,2.521,29.732-1.851v-33.169h-29.732V780.462z"/>
			<path fill="#D4EAF7" d="M1002.14,764.127L685.059,581.054c-8.972-5.174-7.842-14.223,2.511-20.203l215.908-124.614
				c10.359-5.981,26.027-6.629,34.997-1.451l317.083,183.066c8.971,5.183,7.847,14.228-2.511,20.203l-215.911,124.617
				C1026.776,768.656,1011.111,769.302,1002.14,764.127z"/>
			<path fill="#FFFFFF" d="M1253.047,632.624l-215.911,124.618c-10.358,5.977-26.023,6.626-34.996,1.452L685.059,575.622
				c-2.94-1.697-4.776-3.812-5.575-6.099c-1.404,4.243,0.387,8.531,5.575,11.536l317.081,183.067
				c8.973,5.175,24.638,4.528,34.996-1.454l215.911-124.616c6.959-4.018,9.729-9.42,8.086-14.104
				C1260.109,627.045,1257.408,630.11,1253.047,632.624z"/>
			<g>
				<path fill="#BADEF2" d="M819.919,520.45l-14.348-8.282c-1.152-0.67-1.006-1.827,0.321-2.596l16.936-9.779
					c1.329-0.768,3.341-0.849,4.493-0.185l14.348,8.279c1.152,0.67,1.006,1.827-0.325,2.596l-16.935,9.782
					C823.081,521.033,821.071,521.113,819.919,520.45z"/>
				<path fill="#BADEF2" d="M842.073,533.242l-14.346-8.285c-1.151-0.667-1.009-1.827,0.322-2.595l16.933-9.776
					c1.334-0.771,3.344-0.853,4.495-0.188l14.349,8.283c1.148,0.667,1.006,1.826-0.322,2.595l-16.935,9.776
					C845.237,533.823,843.225,533.905,842.073,533.242z"/>
				<path fill="#BADEF2" d="M864.229,546.03l-14.349-8.282c-1.148-0.662-1.006-1.825,0.322-2.596l16.935-9.773
					c1.332-0.769,3.345-0.853,4.493-0.186l14.349,8.286c1.148,0.661,1.006,1.824-0.322,2.595l-16.936,9.771
					C867.391,546.613,865.382,546.697,864.229,546.03z"/>
				<path fill="#BADEF2" d="M894.871,535.468l-14.348-8.284c-1.149-0.661-1.003-1.824,0.324-2.597l14.214-8.206
					c1.33-0.763,3.344-0.847,4.495-0.18l14.349,8.279c1.148,0.665,1.006,1.828-0.325,2.593l-14.213,8.21
					C898.035,536.051,896.022,536.135,894.871,535.468z"/>
				<path fill="#BADEF2" d="M917.024,548.259l-14.346-8.282c-1.151-0.662-1.006-1.828,0.322-2.597l14.216-8.2
					c1.332-0.771,3.344-0.857,4.493-0.19l14.348,8.285c1.149,0.661,1.006,1.824-0.322,2.595l-14.217,8.201
					C920.189,548.839,918.179,548.928,917.024,548.259z"/>
				<path fill="#BADEF2" d="M939.181,561.053l-14.345-8.282c-1.152-0.667-1.006-1.825,0.323-2.596l14.213-8.208
					c1.334-0.771,3.344-0.854,4.493-0.188l14.348,8.282c1.155,0.67,1.009,1.825-0.32,2.596l-14.216,8.21
					C942.349,561.636,940.336,561.715,939.181,561.053z"/>
				<path fill="#BADEF2" d="M961.335,573.843l-14.342-8.282c-1.152-0.667-1.009-1.827,0.32-2.596l14.219-8.206
					c1.329-0.77,3.338-0.851,4.493-0.188l14.345,8.283c1.152,0.667,1.01,1.827-0.322,2.595l-14.216,8.21
					C964.502,574.426,962.49,574.508,961.335,573.843z"/>
				<path fill="#BADEF2" d="M983.494,586.633l-14.345-8.28c-1.155-0.664-1.013-1.827,0.319-2.595l14.216-8.21
					c1.328-0.766,3.342-0.851,4.492-0.183l14.347,8.282c1.153,0.664,1.012,1.827-0.319,2.593l-14.217,8.206
					C986.659,587.216,984.646,587.302,983.494,586.633z"/>
				<path fill="#BADEF2" d="M1005.648,599.425l-14.346-8.285c-1.154-0.661-1.01-1.824,0.322-2.587l14.213-8.21
					c1.332-0.769,3.341-0.853,4.496-0.186l14.348,8.279c1.149,0.664,1.008,1.828-0.321,2.596l-14.22,8.21
					C1008.813,600.008,1006.804,600.092,1005.648,599.425z"/>
				<path fill="#BADEF2" d="M1027.806,612.219l-14.346-8.282c-1.151-0.667-1.012-1.827,0.322-2.596l14.214-8.206
					c1.331-0.771,3.341-0.854,4.493-0.191l14.348,8.286c1.151,0.667,1.006,1.827-0.322,2.595l-14.214,8.207
					C1030.967,612.8,1028.957,612.885,1027.806,612.219z"/>
				<path fill="#BADEF2" d="M1049.962,625.01l-14.348-8.282c-1.152-0.668-1.008-1.825,0.321-2.596l14.217-8.21
					c1.331-0.769,3.338-0.848,4.492-0.186l14.349,8.282c1.148,0.67,1.007,1.824-0.322,2.596l-14.216,8.209
					C1053.123,625.593,1051.111,625.671,1049.962,625.01z"/>
				<path fill="#BADEF2" d="M1072.116,637.799l-14.346-8.282c-1.151-0.661-1.01-1.827,0.318-2.596l14.22-8.207
					c1.328-0.766,3.342-0.85,4.49-0.183l14.349,8.282c1.153,0.662,1.006,1.828-0.322,2.596l-14.214,8.204
					C1075.277,638.382,1073.268,638.469,1072.116,637.799z"/>
				<path fill="#BADEF2" d="M1094.272,650.589l-14.349-8.28c-1.148-0.664-1.007-1.827,0.322-2.59l14.219-8.209
					c1.329-0.771,3.338-0.855,4.49-0.188l14.348,8.283c1.152,0.664,1.009,1.827-0.321,2.595l-14.217,8.21
					C1097.437,651.172,1095.422,651.259,1094.272,650.589z"/>
				<path fill="#BADEF2" d="M927.516,529.414l-14.348-8.285c-1.152-0.667-1.006-1.828,0.325-2.596l14.213-8.207
					c1.328-0.765,3.344-0.852,4.493-0.188l14.348,8.287c1.155,0.661,1.009,1.827-0.325,2.591l-14.21,8.207
					C930.683,529.994,928.667,530.081,927.516,529.414z"/>
				<path fill="#BADEF2" d="M905.028,516.429l-14.346-8.283c-1.151-0.661-1.006-1.827,0.322-2.597l14.213-8.205
					c1.332-0.767,3.348-0.854,4.496-0.187l14.348,8.28c1.149,0.667,1.007,1.833-0.324,2.595l-14.217,8.21
					C908.193,517.011,906.18,517.098,905.028,516.429z"/>
				<path fill="#BADEF2" d="M882.504,503.426l-30.898-17.837c-1.149-0.668-1.007-1.827,0.324-2.596l14.217-8.208
					c1.328-0.77,3.341-0.852,4.492-0.188l30.899,17.84c1.152,0.665,1.006,1.829-0.322,2.597L887,503.239
					C885.672,504.009,883.659,504.093,882.504,503.426z"/>
				<path fill="#BADEF2" d="M898.248,487.612l-25.074-14.479c-1.148-0.664-1.006-1.825,0.322-2.596l14.216-8.208
					c1.332-0.765,3.344-0.849,4.493-0.184l25.077,14.478c1.151,0.665,1.006,1.826-0.325,2.591l-14.211,8.208
					C901.416,488.194,899.403,488.277,898.248,487.612z"/>
				<path fill="#BADEF2" d="M949.669,542.2l-14.345-8.282c-1.152-0.661-1.006-1.823,0.321-2.596l14.217-8.203
					c1.332-0.769,3.341-0.853,4.496-0.186l14.345,8.284c1.151,0.659,1.006,1.825-0.323,2.597l-14.216,8.201
					C952.837,542.783,950.824,542.868,949.669,542.2z"/>
				<path fill="#BADEF2" d="M971.829,554.998l-14.348-8.285c-1.155-0.667-1.01-1.823,0.324-2.595l14.211-8.207
					c1.331-0.769,3.344-0.854,4.496-0.188l14.346,8.281c1.154,0.667,1.01,1.827-0.322,2.597l-14.213,8.206
					C974.993,555.579,972.979,555.66,971.829,554.998z"/>
				<path fill="#BADEF2" d="M993.983,567.788l-14.347-8.281c-1.153-0.667-1.009-1.828,0.322-2.597l14.214-8.21
					c1.331-0.768,3.341-0.849,4.495-0.188l14.349,8.285c1.148,0.667,1.006,1.826-0.324,2.596l-14.218,8.207
					C997.147,568.368,995.132,568.449,993.983,567.788z"/>
				<path fill="#BADEF2" d="M1016.137,580.577l-14.345-8.281c-1.152-0.664-1.009-1.827,0.322-2.597l14.213-8.209
					c1.335-0.763,3.344-0.847,4.496-0.18l14.348,8.282c1.152,0.662,1.007,1.825-0.322,2.587l-14.213,8.213
					C1019.302,581.16,1017.292,581.244,1016.137,580.577z"/>
				<path fill="#BADEF2" d="M1038.294,593.37l-14.349-8.284c-1.148-0.662-1.003-1.828,0.325-2.591l14.217-8.207
					c1.328-0.771,3.338-0.856,4.492-0.188l14.349,8.283c1.147,0.661,1.006,1.827-0.325,2.595l-14.214,8.207
					C1041.458,593.95,1039.445,594.037,1038.294,593.37z"/>
				<path fill="#BADEF2" d="M1060.45,606.162l-14.349-8.281c-1.151-0.667-1.007-1.825,0.322-2.597l14.216-8.21
					c1.332-0.768,3.345-0.846,4.493-0.185l14.349,8.285c1.148,0.667,1.007,1.823-0.322,2.596l-14.216,8.207
					C1063.612,606.745,1061.603,606.823,1060.45,606.162z"/>
				<path fill="#BADEF2" d="M1082.604,618.954l-14.347-8.284c-1.15-0.667-1.006-1.827,0.322-2.597l14.217-8.206
					c1.331-0.769,3.341-0.85,4.49-0.188l14.348,8.283c1.154,0.667,1.009,1.826-0.318,2.595l-14.218,8.207
					C1085.771,619.534,1083.756,619.616,1082.604,618.954z"/>
				<path fill="#BADEF2" d="M1104.761,631.744l-14.348-8.282c-1.149-0.661-1.007-1.827,0.322-2.596l14.219-8.204
					c1.329-0.769,3.341-0.854,4.493-0.188l14.345,8.285c1.152,0.661,1.01,1.824-0.322,2.595l-14.216,8.201
					C1107.925,632.324,1105.913,632.411,1104.761,631.744z"/>
				<path fill="#BADEF2" d="M1126.918,644.533l-14.346-8.281c-1.154-0.664-1.009-1.827,0.318-2.594l14.218-8.207
					c1.327-0.768,3.341-0.852,4.492-0.185l14.346,8.282c1.153,0.661,1.012,1.824-0.322,2.596l-14.214,8.21
					C1130.082,645.116,1128.069,645.2,1126.918,644.533z"/>
				<path fill="#BADEF2" d="M1166.304,667.279l-31.303-18.079c-1.152-0.661-1.009-1.823,0.322-2.587l14.216-8.213
					c1.332-0.768,3.342-0.852,4.493-0.185l31.303,18.072c1.154,0.667,1.009,1.827-0.319,2.596l-14.217,8.207
					C1169.471,667.859,1167.455,667.941,1166.304,667.279z"/>
				<path fill="#BADEF2" d="M1209.439,642.369l-26.424-15.25c-1.15-0.67-1.006-1.823,0.322-2.596l14.217-8.209
					c1.331-0.763,3.342-0.85,4.493-0.18l26.42,15.25c1.154,0.662,1.009,1.828-0.319,2.596l-14.217,8.21
					C1212.602,642.952,1210.589,643.037,1209.439,642.369z"/>
				<path fill="#BADEF2" d="M988.473,539.703l-14.348-8.282c-1.155-0.667-1.009-1.826,0.323-2.596l14.213-8.209
					c1.329-0.771,3.344-0.85,4.496-0.188l14.348,8.284c1.149,0.667,1.006,1.828-0.325,2.597l-14.213,8.207
					C991.634,540.283,989.622,540.365,988.473,539.703z"/>
				<path fill="#BADEF2" d="M965.764,526.595l-14.345-8.286c-1.155-0.667-1.009-1.827,0.322-2.596l14.216-8.207
					c1.329-0.771,3.341-0.853,4.493-0.188l14.345,8.282c1.155,0.667,1.01,1.827-0.322,2.596l-14.213,8.206
					C968.931,527.175,966.916,527.259,965.764,526.595z"/>
				<path fill="#BADEF2" d="M943.058,513.483l-14.348-8.285c-1.149-0.667-1.003-1.825,0.325-2.596l14.213-8.207
					c1.332-0.769,3.341-0.852,4.496-0.186l14.348,8.279c1.149,0.67,1.003,1.828-0.325,2.596l-14.216,8.21
					C946.222,514.066,944.207,514.15,943.058,513.483z"/>
				<path fill="#BADEF2" d="M920.349,500.37l-14.345-8.283c-1.152-0.663-1.006-1.825,0.322-2.593l14.216-8.208
					c1.329-0.767,3.341-0.851,4.493-0.185l14.348,8.284c1.152,0.661,1.006,1.825-0.325,2.593l-14.213,8.208
					C923.516,500.953,921.503,501.038,920.349,500.37z"/>
				<path fill="#BADEF2" d="M1010.626,552.493l-14.348-8.283c-1.149-0.67-1.006-1.827,0.321-2.595l14.218-8.21
					c1.33-0.768,3.341-0.847,4.494-0.186l14.347,8.279c1.15,0.67,1.006,1.833-0.322,2.597l-14.217,8.209
					C1013.788,553.076,1011.781,553.155,1010.626,552.493z"/>
				<path fill="#BADEF2" d="M1032.783,565.285L1018.436,557c-1.151-0.661-1.01-1.827,0.325-2.596l14.21-8.207
					c1.332-0.762,3.348-0.852,4.496-0.182l14.349,8.282c1.151,0.661,1.009,1.826-0.325,2.59l-14.213,8.207
					C1035.947,565.865,1033.936,565.949,1032.783,565.285z"/>
				<path fill="#BADEF2" d="M1054.937,578.072l-14.348-8.278c-1.148-0.664-1.003-1.827,0.325-2.594l14.217-8.209
					c1.328-0.769,3.341-0.853,4.492-0.186l14.349,8.285c1.151,0.662,1.006,1.825-0.324,2.593l-14.215,8.21
					C1058.102,578.655,1056.089,578.74,1054.937,578.072z"/>
				<path fill="#BADEF2" d="M1077.094,590.87l-14.345-8.286c-1.155-0.666-1.01-1.823,0.319-2.595l14.216-8.207
					c1.329-0.769,3.344-0.85,4.493-0.188l14.348,8.282c1.155,0.667,1.007,1.826-0.325,2.596l-14.21,8.206
					C1080.258,591.45,1078.246,591.531,1077.094,590.87z"/>
				<path fill="#BADEF2" d="M1099.248,603.659l-14.346-8.281c-1.152-0.662-1.01-1.828,0.324-2.597l14.215-8.21
					c1.327-0.762,3.341-0.849,4.494-0.188l14.347,8.291c1.15,0.661,1.006,1.823-0.322,2.59l-14.217,8.207
					C1102.415,604.24,1100.399,604.323,1099.248,603.659z"/>
				<path fill="#BADEF2" d="M1121.401,616.448l-14.346-8.282c-1.151-0.663-1.007-1.826,0.325-2.596l14.213-8.204
					c1.329-0.768,3.345-0.852,4.496-0.185l14.349,8.282c1.148,0.661,1.004,1.824-0.325,2.593l-14.216,8.204
					C1124.568,617.031,1122.557,617.116,1121.401,616.448z"/>
				<path fill="#BADEF2" d="M1143.561,629.244l-14.348-8.282c-1.154-0.667-1.006-1.833,0.325-2.596l14.211-8.207
					c1.334-0.769,3.344-0.856,4.498-0.188l14.346,8.282c1.151,0.667,1.006,1.826-0.322,2.595l-14.217,8.207
					C1146.726,629.822,1144.71,629.906,1143.561,629.244z"/>
				<path fill="#BADEF2" d="M1165.715,642.033l-14.348-8.281c-1.149-0.667-1.004-1.825,0.325-2.597l14.213-8.21
					c1.331-0.768,3.347-0.846,4.496-0.185l14.348,8.285c1.149,0.664,1.004,1.824-0.325,2.593l-14.216,8.21
					C1168.879,642.616,1166.867,642.695,1165.715,642.033z"/>
				<path fill="#BADEF2" d="M1187.871,654.825l-14.349-8.284c-1.15-0.661-1.003-1.824,0.325-2.597l14.211-8.206
					c1.331-0.763,3.348-0.85,4.495-0.188l14.35,8.288c1.15,0.662,1.006,1.828-0.325,2.59l-14.211,8.207
					C1191.036,655.406,1189.021,655.492,1187.871,654.825z"/>
				<path fill="#BADEF2" d="M976.807,508.062l-14.348-8.285c-1.155-0.661-1.012-1.827,0.322-2.593l14.214-8.208
					c1.331-0.766,3.344-0.853,4.492-0.185l14.349,8.282c1.151,0.662,1.009,1.828-0.322,2.593l-14.217,8.207
					C979.969,508.645,977.956,508.729,976.807,508.062z"/>
				<path fill="#BADEF2" d="M954.76,495.334l-14.345-8.282c-1.152-0.669-1.012-1.826,0.319-2.596l14.216-8.208
					c1.332-0.767,3.341-0.849,4.493-0.185l14.348,8.281c1.149,0.667,1.006,1.828-0.322,2.596l-14.219,8.207
					C957.921,495.914,955.912,495.998,954.76,495.334z"/>
				<path fill="#BADEF2" d="M932.715,482.608l-14.348-8.285c-1.152-0.665-1.009-1.826,0.322-2.593l14.216-8.208
					c1.329-0.769,3.344-0.854,4.493-0.188l14.348,8.282c1.149,0.665,1.006,1.826-0.322,2.596l-14.219,8.208
					C935.876,483.188,933.867,483.269,932.715,482.608z"/>
				<path fill="#BADEF2" d="M910.67,469.877l-14.348-8.282c-1.152-0.666-1.009-1.828,0.321-2.596l14.217-8.207
					c1.332-0.765,3.338-0.852,4.492-0.184l14.349,8.283c1.148,0.663,1.006,1.825-0.323,2.592l-14.219,8.206
					C913.832,470.459,911.822,470.544,910.67,469.877z"/>
				<path fill="#BADEF2" d="M933.337,456.789l-14.348-8.284c-1.149-0.662-1.003-1.825,0.325-2.591l4.697-2.714
					c1.331-0.77,3.341-0.852,4.496-0.187l14.349,8.284c1.148,0.662,1.006,1.826-0.325,2.594l-4.698,2.713
					C936.502,457.372,934.489,457.456,933.337,456.789z"/>
				<path fill="#BADEF2" d="M962.106,473.4l-14.346-8.282c-1.151-0.667-1.009-1.829,0.322-2.596l4.701-2.713
					c1.329-0.769,3.341-0.854,4.49-0.186l14.348,8.282c1.152,0.665,1.009,1.826-0.322,2.596l-4.7,2.711
					C965.271,473.98,963.258,474.063,962.106,473.4z"/>
				<path fill="#BADEF2" d="M984.061,486.073l-14.348-8.283c-1.152-0.664-1.006-1.826,0.325-2.595l4.697-2.713
					c1.332-0.77,3.344-0.85,4.496-0.187l14.345,8.284c1.151,0.666,1.007,1.828-0.322,2.594l-4.7,2.714
					C987.226,486.655,985.21,486.742,984.061,486.073z"/>
				<path fill="#BADEF2" d="M1006.016,498.751l-14.348-8.286c-1.155-0.665-1.009-1.825,0.325-2.596l4.697-2.713
					c1.328-0.765,3.341-0.851,4.495-0.184l14.346,8.283c1.151,0.662,1.007,1.825-0.325,2.594l-4.697,2.716
					C1009.178,499.331,1007.165,499.415,1006.016,498.751z"/>
				<path fill="#BADEF2" d="M1027.971,511.425l-14.348-8.281c-1.155-0.67-1.012-1.824,0.319-2.597l4.699-2.713
					c1.328-0.771,3.342-0.853,4.493-0.188l14.349,8.285c1.154,0.667,1.009,1.823-0.322,2.596l-4.7,2.713
					C1031.132,512.008,1029.12,512.087,1027.971,511.425z"/>
				<path fill="#BADEF2" d="M1150.529,582.187l-14.347-8.285c-1.15-0.662-1.006-1.828,0.322-2.596l4.7-2.713
					c1.329-0.77,3.342-0.848,4.493-0.187l14.346,8.282c1.154,0.668,1.009,1.831-0.32,2.596l-4.703,2.711
					C1153.693,582.767,1151.684,582.854,1150.529,582.187z"/>
				<path fill="#BADEF2" d="M1172.483,594.862l-14.349-8.28c-1.148-0.667-1.003-1.826,0.325-2.596l4.697-2.713
					c1.329-0.771,3.344-0.854,4.496-0.188l14.345,8.281c1.151,0.667,1.01,1.827-0.322,2.597l-4.7,2.713
					C1175.648,595.445,1173.633,595.526,1172.483,594.862z"/>
				<path fill="#BADEF2" d="M1194.438,607.535l-14.349-8.285c-1.148-0.663-1.006-1.82,0.322-2.593l4.7-2.713
					c1.329-0.771,3.341-0.85,4.496-0.188l14.345,8.284c1.151,0.668,1.007,1.824-0.322,2.597l-4.703,2.713
					C1197.601,608.118,1195.588,608.202,1194.438,607.535z"/>
				<path fill="#BADEF2" d="M1216.391,620.207l-14.345-8.275c-1.155-0.667-1.012-1.833,0.322-2.596l4.697-2.714
					c1.331-0.769,3.344-0.854,4.496-0.186l14.342,8.28c1.154,0.664,1.012,1.826-0.316,2.595l-4.703,2.714
					C1219.555,620.797,1217.543,620.878,1216.391,620.207z"/>
				<path fill="#BADEF2" d="M998.961,520.852l-14.348-8.283c-1.149-0.661-1.007-1.827,0.321-2.595l14.217-8.201
					c1.331-0.771,3.341-0.858,4.496-0.191l14.345,8.285c1.148,0.662,1.007,1.825-0.322,2.596l-14.216,8.207
					C1002.122,521.432,1000.11,521.519,998.961,520.852z"/>
				<path fill="#BADEF2" d="M1021.115,533.647l-14.347-8.282c-1.151-0.668-1.009-1.825,0.319-2.596l14.217-8.21
					c1.331-0.769,3.345-0.848,4.495-0.186l14.346,8.282c1.154,0.667,1.01,1.824-0.321,2.596l-14.214,8.209
					C1024.279,534.23,1022.271,534.308,1021.115,533.647z"/>
				<path fill="#BADEF2" d="M1043.271,546.436l-14.348-8.282c-1.148-0.667-1.007-1.827,0.325-2.596l14.216-8.207
					c1.328-0.766,3.341-0.85,4.49-0.188l14.348,8.282c1.152,0.667,1.009,1.828-0.322,2.596l-14.216,8.21
					C1046.433,547.019,1044.424,547.1,1043.271,546.436z"/>
				<path fill="#BADEF2" d="M1065.426,559.226l-14.346-8.28c-1.151-0.664-1.009-1.827,0.322-2.595l14.217-8.21
					c1.328-0.767,3.341-0.851,4.492-0.184l14.349,8.283c1.151,0.664,1.006,1.827-0.325,2.596l-14.214,8.203
					C1068.59,559.809,1066.58,559.896,1065.426,559.226z"/>
				<path fill="#BADEF2" d="M1087.582,572.018l-14.345-8.285c-1.155-0.662-1.011-1.825,0.321-2.59l14.214-8.207
					c1.328-0.768,3.341-0.854,4.495-0.185l14.346,8.278c1.154,0.664,1.009,1.827-0.319,2.597l-14.216,8.209
					C1090.746,572.607,1088.734,572.685,1087.582,572.018z"/>
				<path fill="#BADEF2" d="M1109.736,584.81l-14.347-8.279c-1.15-0.667-1.009-1.827,0.325-2.596l14.214-8.207
					c1.328-0.771,3.345-0.852,4.495-0.19l14.347,8.285c1.15,0.667,1.006,1.825-0.322,2.597l-14.217,8.207
					C1112.903,585.393,1110.891,585.474,1109.736,584.81z"/>
				<path fill="#BADEF2" d="M1131.896,597.603l-14.348-8.283c-1.155-0.667-1.007-1.824,0.322-2.595l14.213-8.21
					c1.329-0.763,3.344-0.847,4.496-0.187l14.348,8.283c1.152,0.667,1.007,1.83-0.325,2.597l-14.213,8.209
					C1135.057,598.186,1133.045,598.27,1131.896,597.603z"/>
				<path fill="#BADEF2" d="M1154.049,610.392l-14.348-8.282c-1.149-0.662-1.006-1.828,0.325-2.596l14.214-8.201
					c1.331-0.771,3.344-0.854,4.495-0.188l14.346,8.282c1.151,0.661,1.006,1.827-0.322,2.597l-14.217,8.203
					C1157.214,610.975,1155.201,611.062,1154.049,610.392z"/>
				<path fill="#BADEF2" d="M1176.206,623.187l-14.348-8.285c-1.152-0.664-1.011-1.827,0.321-2.59l14.213-8.21
					c1.332-0.771,3.348-0.849,4.496-0.188l14.349,8.282c1.151,0.665,1.007,1.828-0.325,2.597l-14.213,8.21
					C1179.37,623.77,1177.354,623.851,1176.206,623.187z"/>
				<path fill="#BADEF2" d="M872.291,522.432l-42.25-24.394c-1.152-0.665-1.006-1.828,0.322-2.596l14.216-8.206
					c1.329-0.771,3.341-0.855,4.496-0.188l42.253,24.396c1.148,0.662,1.003,1.828-0.325,2.59l-14.216,8.207
					C875.458,523.012,873.445,523.099,872.291,522.432z"/>
				<path fill="#BADEF2" d="M1144.478,679.58l-42.25-24.393c-1.151-0.67-1.007-1.825,0.322-2.596l14.216-8.21
					c1.328-0.769,3.342-0.853,4.493-0.186l42.253,24.396c1.152,0.668,1.006,1.825-0.325,2.596l-14.213,8.207
					C1147.646,680.163,1145.632,680.242,1144.478,679.58z"/>
				<path fill="#BADEF2" d="M1055.876,656.677l-14.345-8.28c-1.152-0.664-1.011-1.827,0.321-2.59l16.936-9.779
					c1.331-0.771,3.338-0.854,4.493-0.188l14.348,8.281c1.149,0.665,1.006,1.828-0.322,2.597l-16.935,9.778
					C1059.04,657.26,1057.028,657.346,1055.876,656.677z"/>
				<path fill="#BADEF2" d="M894.98,563.788l-22.938-13.252c-1.155-0.661-1.012-1.823,0.316-2.59l16.935-9.776
					c1.332-0.768,3.344-0.854,4.496-0.188l22.944,13.243c1.151,0.667,1.006,1.833-0.325,2.596l-16.929,9.779
					C898.145,564.371,896.135,564.45,894.98,563.788z"/>
				<path fill="#BADEF2" d="M1034.529,644.357l-22.944-13.249c-1.152-0.661-1.009-1.827,0.322-2.596l16.935-9.776
					c1.329-0.765,3.345-0.852,4.493-0.182l22.944,13.243c1.151,0.667,1.01,1.827-0.322,2.596l-16.936,9.776
					C1037.693,644.935,1035.682,645.022,1034.529,644.357z"/>
				<path fill="#BADEF2" d="M926.95,582.242l-22.947-13.246c-1.148-0.664-1.006-1.826,0.325-2.596l16.932-9.776
					c1.331-0.768,3.345-0.852,4.496-0.185l22.944,13.243c1.148,0.667,1.006,1.825-0.322,2.596l-16.935,9.779
					C930.111,582.825,928.099,582.905,926.95,582.242z"/>
				<path fill="#BADEF2" d="M925.91,556.53l99.754,57.59c1.238,0.716,1.238,1.875,0,2.594l-17.269,9.967
					c-1.236,0.718-3.243,0.718-4.482,0l-99.754-57.593L925.91,556.53z"/>
				<path fill="#BADEF2" d="M1117.8,679.872l15.979,9.228c0.94,0.544,0.822,1.497-0.265,2.125l-6.929,4
					c-1.091,0.63-2.741,0.697-3.684,0.154l-15.981-9.229c-0.944-0.544-0.827-1.497,0.268-2.125l6.926-4.002
					C1115.207,679.396,1116.854,679.325,1117.8,679.872z"/>
				<path fill="#BADEF2" d="M1095.455,666.974l15.981,9.227c0.944,0.547,0.829,1.497-0.264,2.127l-6.926,4
					c-1.091,0.628-2.741,0.701-3.686,0.154l-15.979-9.227c-0.944-0.547-0.827-1.494,0.267-2.128l6.927-4
					C1092.865,666.497,1094.514,666.43,1095.455,666.974z"/>
				<path fill="#BADEF2" d="M1073.302,654.181l15.981,9.231c0.943,0.544,0.827,1.491-0.265,2.125l-6.926,3.997
					c-1.093,0.634-2.741,0.695-3.686,0.151l-15.982-9.222c-0.94-0.544-0.822-1.502,0.265-2.13l6.929-3.997
					C1070.712,653.711,1072.356,653.637,1073.302,654.181z"/>
				<path fill="#BADEF2" d="M1107.695,659.907l15.979,9.229c0.944,0.544,0.826,1.5-0.267,2.125l-6.926,4
					c-1.091,0.63-2.741,0.697-3.687,0.152l-15.979-9.227c-0.944-0.544-0.827-1.497,0.267-2.125l6.926-4.002
					C1105.1,659.434,1106.751,659.364,1107.695,659.907z"/>
			</g>
			<g>
				<polygon fill="#5992C8" points="1232.244,362.569 1088.146,279.374 1090.001,270.01 1234.097,353.203 				"/>
				<polygon fill="#5992C8" points="1180.632,378.377 1080.048,320.303 1081.9,310.935 1182.487,369.01 				"/>
				<polygon fill="#FFFFFF" points="1171.116,350.079 1084.096,299.838 1085.948,290.472 1172.972,340.712 				"/>
				<polygon fill="#E53F8C" points="1228.19,383.033 1184.682,357.912 1186.534,348.545 1230.046,373.664 				"/>
			</g>
		</g>
		<polygon fill="#092D60" points="1230.907,454.656 1205.451,575.348 1114.041,522.603 1134.006,483.377 		"/>
		<path fill="#5992C8" d="M947.708,640.181L947.708,640.181c-25.425-14.679-25.425-51.38,0-66.062l127.805-73.789l129.938,75.018
			l-112.291,64.833C1048.157,666.166,992.708,666.166,947.708,640.181z"/>
		<polygon fill="#D4EAF7" points="1064.927,266.953 1019.974,241 1021.889,231.323 1066.844,257.275 		"/>
		<polygon fill="#FFFFFF" points="1060.927,287.472 1015.975,261.519 1017.889,251.841 1062.841,277.794 		"/>
		<g>
			<path fill="#5992C8" d="M672.69,507.417h0.045c-20.573-11.427-33.416-36.461-33.525-72.293
				c-0.227-70.937,49.477-157.659,110.798-193.318l44.249-25.733l0.006-0.003l0,0l0,0l2.13,1.2l202.984,114.153l-51.427,33.422
				l-19.307,14.125l-26.579,27.768l-4.27,3.896l-28.289,42.853l-10.374,26.833l-7.693,21.331l-6.32,44.751l-0.436,3.868
				l2.279,18.866l6.528,23.363l9.207,15.828l13.393,15.897L672.69,507.417z"/>
			<path fill="#D4EAF7" d="M1027.897,330.557l0.021,7.51L893.222,416.28c2.281-5.231,6.596-9.57,11.004-13.923L1027.897,330.557z"/>
			<polygon fill="#D4EAF7" points="1230.885,447.146 1027.897,330.557 905.003,404.323 889.624,422.233 866.517,462.825 
				852.003,503.398 847.275,535.12 846.684,566.782 866.508,612.082 892.287,627.145 918.796,628.524 950.589,615.327 
				1201.911,467.479 			"/>
			<path fill="#396CA9" d="M672.735,507.417c-17.212-9.563-28.982-28.678-32.44-55.646l207.037,118.665l6.158,22.062l9.207,15.828
				l13.393,15.897l-203.4-116.807H672.735z"/>
			<g>
				<path fill="#163E7B" d="M641.076,456.948c-1.18-6.75-1.847-14.015-1.867-21.823c-0.02-5.223,0.264-10.539,0.777-15.905
					l206.386,118.297l-1.255,8.885l-0.436,3.868l2.279,18.866l1.939,6.931L641.076,456.948z"/>
				<path fill="#163E7B" d="M1230.907,454.656l-0.022-7.51L953.781,608.176c-57.736,33.578-104.886,6.553-105.091-60.236
					c-0.214-66.797,46.589-148.456,104.325-182.033l46.383-26.974l-0.022-7.511l-46.385,26.972
					c-61.316,35.662-111.022,122.383-110.795,193.321c0.219,70.935,50.286,99.633,111.606,63.973L1230.907,454.656z"/>
			</g>
		</g>
		<g>
			<polygon fill="#5992C8" points="1120.306,469.06 995.539,396.307 987.713,400.782 1112.479,473.535 			"/>
			<polygon fill="#5992C8" points="1116.827,427.547 1029.736,376.761 1021.911,381.235 1109.002,432.02 			"/>
			<polygon fill="#5992C8" points="1087.982,430.47 1012.639,386.533 1004.811,391.01 1080.157,434.944 			"/>
			<polygon fill="#5992C8" points="1137.403,459.288 1099.732,437.319 1091.901,441.794 1129.577,463.762 			"/>
		</g>
		<g>
			<path opacity="0.3" fill="#396CA9" d="M1109.666,849.496l269.176-155.518c6.525-3.771,5.71-10.352-1.823-14.701l0,0
				c-7.54-4.353-18.939-4.82-25.468-1.06l-269.174,155.526c-6.527,3.768-5.709,10.349,1.825,14.701l0,0
				C1091.741,852.793,1103.141,853.266,1109.666,849.496z"/>
			<g>
				<path fill="#E53F8C" d="M1400.839,640.812L1400.839,640.812c-0.227-0.385-0.67-0.589-1.105-0.496l-14.331,2.957l5.534,9.643
					l9.773-10.897C1401.01,641.686,1401.061,641.201,1400.839,640.812z"/>
				<g>
					<path fill="#5992C8" d="M1395.13,647.824c0.003-2.063-1.438-4.574-3.227-5.607c-0.823-0.479-1.569-0.547-2.143-0.289
						c-16.521-0.297-32.817,3.894-47.146,12.128l-1.04,0.595l17.462,30.396l5.28-3.432c11.176-7.251,20.627-16.855,27.691-28.146
						l2.285-3.649C1394.808,649.455,1395.127,648.78,1395.13,647.824z"/>
					<path fill="#5992C8" d="M1362.684,677.031c0.018-7.903-5.511-17.528-12.35-21.49c-6.836-3.969-12.389-0.781-12.408,7.122
						c-0.014,7.904,5.515,17.529,12.351,21.498C1357.111,688.121,1362.67,684.934,1362.684,677.031z"/>
					<polygon fill="#5992C8" points="1252.971,749.681 1359.037,685.047 1341.575,654.65 1232.336,713.765 					"/>
					<path fill="#D4EAF7" d="M1257.279,740.206c0.02-9.342-6.516-20.71-14.593-25.394c-8.077-4.689-14.643-0.919-14.661,8.42
						c-0.021,9.342,6.514,20.713,14.592,25.395C1250.698,753.316,1257.257,749.547,1257.279,740.206z"/>
				</g>
				<g>
					<path fill="#D4EAF7" d="M1251.229,743.682c0.021-9.339-6.514-20.71-14.592-25.395c-8.078-4.687-14.643-0.919-14.658,8.424
						c-0.022,9.342,6.511,20.71,14.589,25.391C1244.646,756.795,1251.211,753.022,1251.229,743.682z"/>
					<polygon fill="#D4EAF7" points="1106.642,833.756 1246.92,753.151 1226.288,717.238 1086.01,797.84 					"/>
					<path fill="#D4EAF7" d="M1110.952,824.279c0.017-9.336-6.514-20.704-14.592-25.394c-8.077-4.689-14.643-0.914-14.661,8.423
						c-0.021,9.339,6.514,20.707,14.592,25.398C1104.368,837.388,1110.933,833.62,1110.952,824.279z"/>
					<path fill="#396CA9" d="M1105.717,821.243c-0.267-5.516-4.687-12.425-9.875-15.433c-5.185-3.011-9.174-0.981-8.907,4.535
						c0.268,5.516,4.689,12.428,9.874,15.433C1101.994,828.791,1105.982,826.757,1105.717,821.243z"/>
				</g>
				<g>
					<path fill="#FFFFFF" d="M1258.344,739.591c0.021-9.333-6.511-20.702-14.592-25.393c-3.251-1.892-6.25-2.382-8.683-1.715
						c2.662-2.728,6.992-3.013,11.89-0.171c8.078,4.684,14.608,16.055,14.589,25.394c-0.012,5.575-2.368,9.148-5.979,10.137
						C1257.305,746.071,1258.339,743.273,1258.344,739.591z"/>
					<path fill="#5992C8" d="M1258.344,739.591c0.021-9.333-6.511-20.702-14.592-25.393c-4.036-2.346-7.702-2.575-10.354-1.045
						l-7.946,4.563l3.703,6.44c0.604,8.504,6.193,18.229,13.231,23.028l3.699,6.446l7.949-4.568l0,0
						C1256.69,747.539,1258.336,744.265,1258.344,739.591z"/>
					<path fill="#D4EAF7" d="M1250.396,744.158c0.021-9.336-6.512-20.707-14.589-25.394c-8.077-4.685-14.643-0.914-14.661,8.426
						c-0.021,9.336,6.514,20.704,14.592,25.395C1243.812,757.268,1250.378,753.498,1250.396,744.158z"/>
				</g>
				<g>
					<path fill="#E53F8C" d="M1099.11,825.324l-8.902-15.497l-29.732,17.083c-4.279,2.456-5.755,7.921-3.294,12.198l0,0
						c2.456,4.283,7.919,5.757,12.195,3.302L1099.11,825.324z"/>
					<path fill="#E53F8C" d="M1100.972,821.235c0.008-4.026-2.812-8.933-6.299-10.953c-3.482-2.022-6.316-0.396-6.323,3.633
						c-0.008,4.03,2.81,8.934,6.296,10.956C1098.132,826.894,1100.963,825.268,1100.972,821.235z"/>
				</g>
				<g>
					<path fill="#5992C8" d="M1134.364,767.179l-4.408-2.561c-2.531-1.463-5.906-1.135-9.491,0.927l-15.278,8.777
						c-2.884,1.656-5.237,5.712-5.243,9.036l-0.015,7.607c-0.003,1.274-0.645,2.734-1.568,3.801l0.534,3.531l-3.768-2.209
						l0.012-0.003c-0.547-0.282-0.889-0.925-0.889-1.857l0.017-7.604c0.018-6.938,4.92-15.392,10.933-18.851l15.278-8.777
						c5.105-2.933,9.898-3.397,13.504-1.308l4.402,2.558c2.534,1.469,5.906,1.144,9.496-0.926l61.588-35.384
						c0.796-0.454,1.512-0.487,2.026-0.177v-0.002l3.759,2.202l-3.252,1.211c-0.459,1.352-1.424,2.669-2.545,3.313l-61.59,35.384
						C1142.76,768.807,1137.964,769.273,1134.364,767.179z"/>
					<path fill="#5992C8" d="M1133.771,766.86c-2.53-1.469-5.902-1.142-9.489,0.916l-15.278,8.781
						c-2.885,1.657-5.239,5.71-5.244,9.037l-0.018,7.604c-0.003,1.812-1.275,4.006-2.846,4.902c-1.565,0.901-2.834,0.166-2.83-1.64
						l0.018-7.604c0.014-6.937,4.919-15.39,10.934-18.846l15.278-8.781c5.104-2.933,9.899-3.396,13.502-1.307l4.405,2.557
						c2.531,1.469,5.903,1.144,9.494-0.917l61.59-35.393c1.566-0.896,2.831-0.156,2.828,1.647c-0.003,1.806-1.278,4.003-2.842,4.899
						l-61.592,35.393c-5.104,2.932-9.901,3.394-13.504,1.309L1133.771,766.86z"/>
					<g>
						<path fill="#FFFFFF" d="M1103.553,786.847l-0.014,7.605c0,0.049-0.022,0.102-0.025,0.154c0.144-0.474,0.228-0.956,0.228-1.41
							l0.018-7.604c0-0.216,0.036-0.438,0.06-0.665C1103.665,785.582,1103.556,786.23,1103.553,786.847z"/>
					</g>
				</g>
			</g>
			<path fill="#396CA9" d="M1074.717,861.936l28.163-16.257c3.397-1.962,2.969-5.389-0.953-7.652l0,0
				c-3.918-2.265-9.852-2.511-13.246-0.549l-28.163,16.259c-3.395,1.96-2.969,5.385,0.95,7.649l0,0
				C1065.389,863.651,1071.319,863.895,1074.717,861.936z"/>
		</g>
		<g>
			<polygon opacity="0.3" fill="#396CA9" points="617.347,750.868 579.716,729.147 617.347,707.416 654.979,729.147 			"/>
			<polygon fill="#CA2182" points="654.979,704.502 617.347,726.226 617.347,682.771 654.979,661.043 			"/>
			<polygon fill="#E53F8C" points="617.347,682.771 579.716,661.043 617.347,639.321 654.979,661.043 			"/>
			<polygon fill="#E53F8C" points="617.347,726.226 579.716,704.502 579.716,661.043 617.347,682.771 			"/>
		</g>
		<g>
			<polygon opacity="0.3" fill="#396CA9" points="1468.063,603.018 1426.146,578.818 1468.062,554.617 1509.975,578.818 			"/>
			<polygon fill="#163E7B" points="1509.978,551.366 1468.063,575.567 1468.063,527.166 1509.978,502.966 			"/>
			<polygon fill="#D4EAF7" points="1468.063,527.166 1426.146,502.966 1468.062,478.765 1509.975,502.966 			"/>
			<polygon fill="#5992C8" points="1468.063,575.567 1426.146,551.366 1426.146,502.966 1468.063,527.166 			"/>
		</g>
		<g>
			<polygon opacity="0.3" fill="#396CA9" points="439.595,847.512 397.678,823.312 439.592,799.107 481.506,823.312 			"/>
			<polygon fill="#163E7B" points="481.509,795.855 439.595,820.061 439.595,771.657 481.509,747.455 			"/>
			<polygon fill="#D4EAF7" points="439.595,771.657 397.678,747.455 439.592,723.261 481.506,747.461 			"/>
			<polygon fill="#5992C8" points="439.595,820.061 397.678,795.855 397.678,747.455 439.595,771.657 			"/>
		</g>
		<g>
			<g>
				<path fill="#5992C8" d="M994.008,512.735c-24.872,14.357-65.203,14.357-90.076,0c-24.875-14.362-24.875-37.647-0.002-52.006
					c24.875-14.359,65.203-14.359,90.078,0C1018.884,475.092,1018.884,498.375,994.008,512.735z"/>
				<path fill="#CA2182" d="M1012.664,467.82v-11.71h-3.377c-3.03-5.22-8.078-10.136-15.279-14.29
					c-24.875-14.363-65.203-14.363-90.078,0c-7.197,4.154-12.246,9.07-15.277,14.29h-3.372v11.615h0.008
					c-0.045,9.44,6.167,18.894,18.645,26.099c24.873,14.361,65.204,14.361,90.076,0
					C1006.444,486.642,1012.664,477.23,1012.664,467.82z"/>
				<path fill="#E53F8C" d="M994.008,482.112c-24.872,14.357-65.203,14.357-90.076,0c-24.875-14.36-24.875-37.644-0.002-52.006
					c24.875-14.36,65.203-14.36,90.078,0.001C1018.884,444.469,1018.884,467.751,994.008,482.112z"/>
				<path fill="#FFFFFF" d="M994.008,482.112c-24.872,14.363-65.203,14.363-90.076,0c-11.92-6.881-18.062-15.814-18.561-24.833
					c-0.535,9.8,5.611,19.696,18.561,27.172c24.873,14.365,65.204,14.365,90.076,0c12.955-7.477,19.101-17.372,18.56-27.172
					C1012.072,466.298,1005.932,475.231,994.008,482.112z"/>
			</g>
			<g>
				<path fill="#FFFFFF" d="M918.272,468.285c-1.071-0.619-1.683-1.463-1.68-2.346l0.064-23.96c0.003-1.828,2.576-3.309,5.74-3.306
					c3.167,0.004,5.724,1.485,5.724,3.317l-0.053,19.867l57.657-7.063c3.102-0.378,6.143,0.766,6.801,2.555
					c0.658,1.788-1.323,3.545-4.417,3.924l-64.593,7.91c-1.695,0.209-3.459-0.038-4.804-0.667
					C918.561,468.439,918.412,468.365,918.272,468.285z"/>
			</g>
		</g>
		<g>
			<path fill="#E53F8C" d="M1227.771,399.061c-1.138,2.485-4.011,3.37-6.425,1.979c-2.406-1.392-3.436-4.535-2.301-7.019
				c1.141-2.483,4.017-3.369,6.427-1.979C1227.883,393.437,1228.914,396.578,1227.771,399.061z"/>
			<path fill="#FFFFFF" d="M1243.164,407.948c-1.139,2.485-4.014,3.371-6.425,1.98c-2.41-1.393-3.438-4.534-2.298-7.018
				c1.135-2.484,4.014-3.371,6.424-1.979C1243.271,402.323,1244.302,405.464,1243.164,407.948z"/>
			<path fill="#D4EAF7" d="M1258.557,416.836c-1.138,2.484-4.016,3.369-6.424,1.978c-2.41-1.391-3.44-4.532-2.301-7.015
				c1.141-2.483,4.014-3.371,6.427-1.98C1258.666,411.209,1259.698,414.351,1258.557,416.836z"/>
			<path fill="#E53F8C" d="M1273.95,425.723c-1.142,2.481-4.018,3.368-6.424,1.978c-2.413-1.392-3.442-4.532-2.305-7.017
				c1.139-2.485,4.018-3.369,6.424-1.979C1274.057,420.096,1275.088,423.239,1273.95,425.723z"/>
		</g>
		<path fill="#163E7B" d="M796.392,217.268l-2.13-1.198v-0.001v0.003l-44.254,25.733c-14.526,8.447-28.385,19.784-41.096,33.073
			l75.778,43.752l94.709-54.682L796.392,217.268z"/>
		<g>
			<g>
				<g>
					<path fill="#E53F8C" d="M877.361,218.589l-13.743-7.935l50.665-29.25c2.396-1.383,2.396-3.63,0-5.013l-51.758-29.881
						c-2.395-1.383-6.287-1.383-8.681,0l-50.665,29.25l-13.741-7.936l50.664-29.251c9.974-5.757,26.193-5.757,36.163,0
						l51.762,29.883c9.973,5.756,9.973,15.123,0,20.878L877.361,218.589z"/>
				</g>
				<g>
					<path fill="#CCE4ED" d="M899.535,222.081c0-7.346-4.468-15.879-9.979-19.061l-91.794-52.998
						c-2.47-1.426-4.723-1.527-6.466-0.553l-0.003-0.005l-109.607,63.69l105.994,79.869l107.979-62.672
						c0.336-0.153,0.659-0.33,0.956-0.556v-0.001v0.001C898.422,228.431,899.535,225.753,899.535,222.081z"/>
					<path fill="#5992C8" d="M787.681,293.024l107.979-62.672c0.336-0.153,0.659-0.33,0.956-0.556v-0.001v0.001
						c1.808-1.365,2.92-4.046,2.92-7.716c0-3.506-1.029-7.278-2.688-10.614l-123.094,71.067L787.681,293.024z"/>
					<path fill="#5992C8" d="M780.78,292.741l-91.799-53c-5.514-3.181-9.976-11.716-9.976-19.063l0,0
						c0-7.346,4.462-10.723,9.976-7.541l91.799,53c5.505,3.181,9.973,11.714,9.973,19.062l0,0
						C790.752,292.545,786.285,295.921,780.78,292.741z"/>
					<path fill="#FFFFFF" d="M781.878,265.635l-91.794-52.998c-2.537-1.465-4.84-1.524-6.601-0.469
						c1.575-0.479,3.464-0.202,5.497,0.971l91.799,52.998c5.505,3.183,9.973,11.716,9.973,19.061v0.002
						c0,3.968-1.309,6.764-3.377,8.006c2.699-0.82,4.482-3.871,4.482-8.509v-0.001C791.857,277.351,787.392,268.818,781.878,265.635
						z"/>
				</g>
				<path fill="#FFFFFF" d="M767.026,274.867l-11.038-6.367c-1.097-0.635-1.987-2.336-1.987-3.799l0,0
					c0-1.466,0.891-2.137,1.987-1.504l11.038,6.367c1.099,0.635,1.989,2.335,1.989,3.799l0,0
					C769.016,274.827,768.125,275.499,767.026,274.867z"/>
			</g>
			<g>
				<path fill="#5992C8" d="M779.477,199.511c3.327-1.969,3.293-5.104-0.072-7.002c-3.372-1.899-8.802-1.842-12.131,0.126
					c-3.33,1.969-3.3,5.104,0.069,7.003C770.715,201.536,776.144,201.481,779.477,199.511z"/>
				<path fill="#5992C8" d="M797.956,209.927c3.333-1.97,3.299-5.104-0.07-7.005c-3.369-1.896-8.801-1.84-12.131,0.129
					c-3.327,1.969-3.296,5.104,0.076,7.003C789.2,211.953,794.632,211.895,797.956,209.927z"/>
				<path fill="#5992C8" d="M816.443,220.342c3.33-1.969,3.296-5.103-0.076-7.001c-3.369-1.898-8.798-1.843-12.128,0.126
					s-3.296,5.105,0.072,7.004C807.682,222.367,813.114,222.312,816.443,220.342z"/>
			</g>
		</g>
	</g>
	<g>
		<path fill="none" stroke="#163E7B" stroke-miterlimit="10" d="M885.602,551.969c0,0,17.057-10.659,19.187-7.814
			c2.13,2.842-8.885,14.92-4.622,13.854c4.266-1.065,21.321-3.555,22.03-0.354c0.709,3.195-5.685,10.657,4.975,13.854
			s15.988,10.304,15.988,10.304"/>
		<path fill="none" stroke="#163E7B" stroke-miterlimit="10" d="M873.877,535.625c0,0,30.91-7.103,26.647,2.133
			c-4.267,9.238-45.478,10.305-30.198,10.305c15.274,0,0.706-9.596,9.234-8.171c8.529,1.419,49.03,29.134,49.03,29.134"/>
	</g>
</g>
</svg>
